<?xml version="1.0" encoding="utf-8"?>
<!-- Generator: Adobe Illustrator 16.0.4, SVG Export Plug-In . SVG Version: 6.00 Build 0)  -->
<!DOCTYPE svg PUBLIC "-//W3C//DTD SVG 1.1//EN" "http://www.w3.org/Graphics/SVG/1.1/DTD/svg11.dtd">
<svg version="1.1" id="Layer_1" xmlns="http://www.w3.org/2000/svg" xmlns:xlink="http://www.w3.org/1999/xlink" x="0px" y="0px"
	 width="60px" height="60px" viewBox="0 0 60 60" enable-background="new 0 0 60 60" xml:space="preserve">
<path fill="#124D80" d="M56.297,27.6l-13.92-13.92c-1.337-1.337-3.497-1.337-4.834,0c-1.338,1.337-1.338,3.497,0,4.834l8.092,8.091
	H6.137c-1.886,0-3.429,1.543-3.429,3.429s1.543,3.429,3.429,3.429h39.429l-8.092,8.092c-1.338,1.337-1.338,3.496,0,4.834
	c0.686,0.686,1.543,0.994,2.434,0.994c0.892,0,1.749-0.343,2.435-0.994l13.92-13.92C57.635,31.098,57.635,28.937,56.297,27.6z"/>
</svg>
