<?xml version="1.0" encoding="utf-8"?>
<!-- Generator: Adobe Illustrator 16.0.4, SVG Export Plug-In . SVG Version: 6.00 Build 0)  -->
<!DOCTYPE svg PUBLIC "-//W3C//DTD SVG 1.1//EN" "http://www.w3.org/Graphics/SVG/1.1/DTD/svg11.dtd">
<svg version="1.1" id="Layer_1" focusable="false" xmlns="http://www.w3.org/2000/svg" xmlns:xlink="http://www.w3.org/1999/xlink"
	 x="0px" y="0px" width="60px" height="60px" viewBox="0 0 60 60" enable-background="new 0 0 60 60" xml:space="preserve">
<path fill="#DF2000" d="M41.369,30l17.062-17.062c2.097-2.097,2.097-5.489,0-7.585l-3.783-3.784c-2.098-2.097-5.489-2.097-7.586,0
	L30,18.631L12.938,1.568c-2.08-2.097-5.489-2.097-7.568,0L1.568,5.352c-2.097,2.097-2.097,5.489,0,7.585L18.631,30L1.568,47.062c-2.097,2.097-2.097,5.488,0,7.586l3.784,3.783c2.097,2.097,5.489,2.097,7.585,0L30,41.369l17.062,17.062
	c2.097,2.097,5.488,2.097,7.586,0l3.783-3.783c2.097-2.098,2.097-5.489,0-7.586L41.369,30z"/>
</svg>
